{"title":"Cuffs S01E08 x264 RB58.mp4","uid":13017989,"size":656425755,"categoryP":"video","categoryS":"tv_shows","magnet":"?xt=urn:btih:f3a5ee3a90feaa749252196af4f1139f02c0c2dd&amp;dn=Cuffs+S01E08+x264+RB58.mp4&amp;tr=udp%3A%2F%2Ftracker.leechers-paradise.org%3A6969&amp;tr=udp%3A%2F%2Fzer0day.ch%3A1337&amp;tr=udp%3A%2F%2Fopen.demonii.com%3A1337&amp;tr=udp%3A%2F%2Ftracker.coppersurfer.tk%3A6969&amp;tr=udp%3A%2F%2Fexodus.desync.com%3A6969","seeders":1,"leechers":0,"uploader":"RedBaron58","files":1,"time":1450312806,"description":"Cuffs S01E08 x264 mp4\r\n \nhttp://www.imdb.com/title/tt4568288/\r\n\r\nTrailer:\r\n\r\n\r\nPlease be patient My intial upload speed is limited.\r\nThank you for your kind comments and feedback on my other torrents, your feedback is welcome.\r\n\r\n\r\nAbout the Episode:\r\nDespite Ryan's best attempts, an ex-soldier suffering from PTSD loses his grip on reality \r\nand places the whole team in mortal danger. \r\nMeanwhile, Jake realises he cannot trust his lawyer boyfriend when their relationship \r\nthreatens to blow Jo's domestic violence case. Elsewhere, Felix investigates a homophobic \r\nhate crime, Carl tries to catch up with an opportunistic drug dealer, \r\nand Robert is forced to confront the consequences of his marital betrayal.\r\n \r\nstarring Ashley Walters and Jacob Ifan\r\n\r\n\r\nI hope you enjoy.\r\n\r\n\r\nTechnical:\r\n\r\n\r\nGeneral\r\nComplete name                            : G:Cuffs S01E08 x264 RB58.mp4\r\nFormat                                   : MPEG-4\r\nFormat profile                           : Base Media\r\nCodec ID                                 : isom\r\nFile size                                : 626 MiB\r\nDuration                                 : 57mn 34s\r\nOverall bit rate                         : 1 520 Kbps\r\nWriting application                      : Lavf54.63.104\r\n\r\nVideo\r\nID                                       : 1\r\nFormat                                   : AVC\r\nFormat/Info                              : Advanced Video Codec\r\nFormat profile                           :   \r\nFormat settings, CABAC                   : Yes\r\nFormat settings, ReFrames                : 4 frames\r\nCodec ID                                 : avc1\r\nCodec ID/Info                            : Advanced Video Coding\r\nDuration                                 : 57mn 34s\r\nBit rate                                 : 1 400 Kbps\r\nWidth                                    : 832 pixels\r\nHeight                                   : 468 pixels\r\nDisplay aspect ratio                     : 16:9\r\nFrame rate mode                          : Constant\r\nFrame rate                               : 25.000 fps\r\nColor space                              : YUV\r\nChroma subsampling                       : 4:2:0\r\nBit depth                                : 8 bits\r\nScan type                                : Progressive\r\nBits/(Pixel*Frame)                       : 0.144\r\nStream size                              : 576 MiB (92%)\r\nWriting library                          : x264 core 123 r2189 35cf912\r\nEncoding settings                        : cabac=1 / ref=3 / deblock=1:0:0\r\n\r\nAudio\r\nID                                       : 2\r\nFormat                                   : AAC\r\nFormat/Info                              : Advanced Audio Codec\r\nFormat profile                           : LC\r\nCodec ID                                 : 40\r\nDuration                                 : 57mn 34s\r\nBit rate mode                            : Constant\r\nBit rate                                 : 112 Kbps\r\nChannel(s)                               : 2 channels\r\nChannel positions                        : Front: L R\r\nSampling rate                            : 48.0 KHz\r\nCompression mode                         : Lossy\r\nStream size                              : 46.1 MiB (7%)","torrent":{"xt":"urn:btih:f3a5ee3a90feaa749252196af4f1139f02c0c2dd","amp;dn":"Cuffs+S01E08+x264+RB58.mp4","amp;tr":["udp%3A%2F%2Ftracker.leechers-paradise.org%3A6969","udp%3A%2F%2Fzer0day.ch%3A1337","udp%3A%2F%2Fopen.demonii.com%3A1337","udp%3A%2F%2Ftracker.coppersurfer.tk%3A6969","udp%3A%2F%2Fexodus.desync.com%3A6969"],"infoHash":"f3a5ee3a90feaa749252196af4f1139f02c0c2dd","infoHashBuffer":{"type":"Buffer","data":[243,165,238,58,144,254,170,116,146,82,25,106,244,241,19,159,2,192,194,221]},"announce":[],"urlList":[]}}